<svg width="128" height="160" viewBox="0 0 128 160" fill="none" xmlns="http://www.w3.org/2000/svg">
<path d="M78.1572 37H29.8428C29.3123 37 28.8036 37.2107 28.4286 37.5858C28.0535 37.9609 27.8428 38.4696 27.8428 39C27.8428 39.5304 28.0535 40.0391 28.4286 40.4142C28.8036 40.7893 29.3123 41 29.8428 41H78.1572C78.6877 41 79.1964 40.7893 79.5714 40.4142C79.9465 40.0391 80.1572 39.5304 80.1572 39C80.1572 38.4696 79.9465 37.9609 79.5714 37.5858C79.1964 37.2107 78.6877 37 78.1572 37Z" fill="black"/>
<path d="M78.1572 47H29.8428C29.3123 47 28.8036 47.2107 28.4286 47.5858C28.0535 47.9609 27.8428 48.4696 27.8428 49C27.8428 49.5304 28.0535 50.0391 28.4286 50.4142C28.8036 50.7893 29.3123 51 29.8428 51H78.1572C78.6877 51 79.1964 50.7893 79.5714 50.4142C79.9465 50.0391 80.1572 49.5304 80.1572 49C80.1572 48.4696 79.9465 47.9609 79.5714 47.5858C79.1964 47.2107 78.6877 47 78.1572 47Z" fill="black"/>
<path d="M78.9561 60.7886C78.981 60.7886 79.0054 60.7913 79.0303 60.7914C79.4374 60.5947 79.7656 60.2655 79.9611 59.8578C80.1566 59.45 80.2078 58.988 80.1063 58.5474C80.0049 58.1068 79.7567 57.7137 79.4026 57.4326C79.0485 57.1514 78.6094 56.9989 78.1572 57H29.8428C29.3123 57 28.8036 57.2107 28.4286 57.5858C28.0535 57.9609 27.8428 58.4696 27.8428 59C27.8428 59.5304 28.0535 60.0391 28.4286 60.4142C28.8036 60.7893 29.3123 61 29.8428 61H76.9533C77.6117 60.8605 78.2829 60.7896 78.9561 60.7886Z" fill="black"/>
<path d="M68.6149 67.1305L68.7455 67H29.8428C29.3123 67 28.8036 67.2107 28.4286 67.5858C28.0535 67.9609 27.8428 68.4696 27.8428 69C27.8428 69.5304 28.0535 70.0391 28.4286 70.4142C28.8036 70.7893 29.3123 71 29.8428 71H66.2734C66.735 69.5423 67.5378 68.2158 68.6149 67.1305Z" fill="black"/>
<path d="M66.121 77H29.8428C29.3123 77 28.8036 77.2107 28.4286 77.5858C28.0535 77.9609 27.8428 78.4696 27.8428 79C27.8428 79.5304 28.0535 80.0391 28.4286 80.4142C28.8036 80.7893 29.3123 81 29.8428 81H62.1438C63.0406 79.2996 64.4258 77.9065 66.121 77Z" fill="black"/>
<path d="M29.8428 87C29.3123 87 28.8036 87.2107 28.4286 87.5858C28.0535 87.9609 27.8428 88.4696 27.8428 89C27.8428 89.5304 28.0535 90.0391 28.4286 90.4142C28.8036 90.7893 29.3123 91 29.8428 91H61.0364C61.0272 90.8267 61 90.6578 61 90.4824V87H29.8428Z" fill="black"/>
<path d="M116.347 79.9509C116.021 79.0063 115.638 78.0826 115.199 77.1851C115.954 76.0954 116.304 74.7751 116.186 73.4542C116.068 72.1333 115.491 70.8955 114.555 69.9566L111.043 66.4454C110.105 65.5075 108.867 64.9292 107.546 64.8114C106.224 64.6935 104.903 65.0438 103.814 65.8009C102.917 65.3621 101.993 64.9789 101.049 64.6534C100.812 63.349 100.126 62.1689 99.1087 61.3186C98.0916 60.4683 96.8085 60.0017 95.4828 60H90.5173C89.1916 60.0017 87.9085 60.4683 86.8914 61.3186C85.8743 62.1689 85.1876 63.349 84.9509 64.6534C84.0067 64.9789 83.0833 65.3621 82.1861 65.8009C81.0967 65.0438 79.7758 64.6935 78.4544 64.8114C77.133 64.9292 75.8949 65.5075 74.9566 66.4454L71.4454 69.9566C70.509 70.8956 69.9316 72.1333 69.8139 73.4542C69.6962 74.7751 70.0457 76.0954 70.8014 77.1851C70.3624 78.0826 69.979 79.0063 69.6534 79.9509C68.349 80.1876 67.169 80.8742 66.3187 81.8913C65.4684 82.9084 65.0017 84.1915 65 85.5172V90.4828C65.0017 91.8085 65.4684 93.0916 66.3186 94.1087C67.1689 95.1257 68.349 95.8124 69.6534 96.0491C69.979 96.9937 70.3624 97.9174 70.8014 98.8149C70.0456 99.9046 69.6961 101.225 69.8138 102.546C69.9315 103.867 70.5089 105.104 71.4454 106.043L74.9566 109.555C75.8949 110.492 77.1329 111.071 78.4544 111.189C79.7758 111.306 81.0966 110.956 82.186 110.199C83.0833 110.638 84.0066 111.021 84.9509 111.347C85.1875 112.651 85.8742 113.831 86.8913 114.681C87.9085 115.532 89.1916 115.998 90.5173 116H95.4828C96.8085 115.998 98.0916 115.532 99.1087 114.681C100.126 113.831 100.812 112.651 101.049 111.347C101.993 111.021 102.917 110.638 103.814 110.199C104.903 110.956 106.224 111.306 107.546 111.189C108.867 111.071 110.105 110.492 111.043 109.555L114.555 106.043C115.491 105.104 116.068 103.867 116.186 102.546C116.304 101.225 115.954 99.9046 115.199 98.8149C115.638 97.9174 116.021 96.9937 116.347 96.0491C117.651 95.8124 118.831 95.1258 119.681 94.1087C120.532 93.0916 120.998 91.8085 121 90.4828V85.5172C120.998 84.1915 120.532 82.9084 119.681 81.8913C118.831 80.8743 117.651 80.1876 116.347 79.9509ZM117 90.4828C117 90.9218 116.826 91.3428 116.515 91.6532C116.205 91.9636 115.784 92.1379 115.345 92.1379H113.275C112.747 94.7326 111.723 97.2008 110.259 99.4072L111.726 100.874C112.037 101.185 112.211 101.606 112.211 102.045C112.211 102.484 112.037 102.905 111.726 103.215L108.215 106.726C108.061 106.88 107.879 107.002 107.678 107.085C107.477 107.168 107.262 107.211 107.045 107.211C106.827 107.211 106.612 107.168 106.411 107.085C106.21 107.002 106.028 106.88 105.874 106.726L104.407 105.259C102.201 106.723 99.7326 107.747 97.138 108.275V110.345C97.138 110.784 96.9636 111.205 96.6532 111.515C96.3428 111.826 95.9218 112 95.4828 112H90.5173C90.0783 112 89.6573 111.826 89.3469 111.515C89.0365 111.205 88.8621 110.784 88.8621 110.345V108.275C86.2674 107.747 83.7992 106.723 81.5928 105.259L80.1258 106.726C79.9721 106.88 79.7896 107.002 79.5888 107.085C79.388 107.168 79.1728 107.211 78.9554 107.211C78.738 107.211 78.5228 107.168 78.322 107.085C78.1212 107.002 77.9387 106.88 77.785 106.726L74.2739 103.215C73.9635 102.905 73.7891 102.484 73.7891 102.045C73.7891 101.606 73.9635 101.185 74.2739 100.874L75.7409 99.4072C74.277 97.2009 73.253 94.7326 72.725 92.1379H70.6552C70.2162 92.1379 69.7952 91.9635 69.4848 91.6531C69.1744 91.3427 69 90.9218 69 90.4828V85.5172C69 85.0782 69.1744 84.6572 69.4848 84.3468C69.7952 84.0364 70.2162 83.8621 70.6552 83.8621H72.725C73.253 81.2674 74.277 78.7992 75.7408 76.5928L74.2738 75.1258C73.9634 74.8154 73.789 74.3944 73.789 73.9555C73.789 73.5165 73.9634 73.0955 74.2738 72.7851L77.785 69.2739C77.9387 69.1202 78.1212 68.9982 78.322 68.9151C78.5228 68.8319 78.738 68.7891 78.9554 68.7891C79.1727 68.7891 79.388 68.8319 79.5888 68.9151C79.7896 68.9982 79.9721 69.1202 80.1258 69.2739L81.5928 70.7409C83.7991 69.277 86.2674 68.253 88.8621 67.725V65.6552C88.8621 65.4378 88.9049 65.2226 88.9881 65.0217C89.0712 64.8209 89.1932 64.6385 89.3469 64.4848C89.5006 64.3311 89.683 64.2092 89.8839 64.126C90.0847 64.0428 90.2999 64 90.5173 64H95.4828C95.7001 64 95.9154 64.0428 96.1162 64.126C96.317 64.2092 96.4995 64.3311 96.6532 64.4848C96.8069 64.6385 96.9288 64.8209 97.012 65.0218C97.0951 65.2226 97.1379 65.4378 97.1379 65.6552V67.725C99.7326 68.253 102.201 69.277 104.407 70.7408L105.874 69.2738C106.028 69.1201 106.21 68.9982 106.411 68.915C106.612 68.8318 106.827 68.789 107.045 68.789C107.262 68.789 107.477 68.8318 107.678 68.915C107.879 68.9982 108.061 69.1201 108.215 69.2738L111.726 72.785C112.037 73.0954 112.211 73.5164 112.211 73.9554C112.211 74.3943 112.037 74.8153 111.726 75.1257L110.259 76.5927C111.723 78.7991 112.747 81.2674 113.275 83.862H115.345C115.562 83.862 115.777 83.9048 115.978 83.988C116.179 84.0712 116.362 84.1931 116.515 84.3468C116.669 84.5005 116.791 84.683 116.874 84.8838C116.957 85.0846 117 85.2998 117 85.5172V90.4828Z" fill="black"/>
<path d="M93.4999 75.1765C90.9637 75.1765 88.4844 75.9285 86.3756 77.3376C84.2667 78.7467 82.6231 80.7494 81.6525 83.0926C80.6819 85.4358 80.428 88.0142 80.9228 90.5017C81.4176 92.9893 82.6389 95.2742 84.4323 97.0676C86.2257 98.861 88.5107 100.082 90.9982 100.577C93.4857 101.072 96.0641 100.818 98.4073 99.8474C100.751 98.8768 102.753 97.2332 104.162 95.1244C105.571 93.0156 106.323 90.5363 106.323 88C106.32 84.6002 104.967 81.3407 102.563 78.9366C100.159 76.5326 96.8998 75.1803 93.4999 75.1765ZM93.4999 96.8235C91.7548 96.8235 90.0489 96.306 88.5978 95.3365C87.1468 94.367 86.0159 92.9889 85.348 91.3766C84.6802 89.7643 84.5055 87.9902 84.8459 86.2786C85.1864 84.567 86.0268 82.9948 87.2608 81.7608C88.4948 80.5268 90.067 79.6864 91.7786 79.346C93.4902 79.0055 95.2643 79.1803 96.8766 79.8481C98.4889 80.5159 99.8669 81.6469 100.836 83.0979C101.806 84.5489 102.323 86.2549 102.323 88C102.324 89.1587 102.095 90.3061 101.652 91.3766C101.208 92.4472 100.558 93.4199 99.7392 94.2392C98.9198 95.0585 97.9471 95.7085 96.8766 96.1519C95.8061 96.5953 94.6587 96.8235 93.4999 96.8235Z" fill="black"/>
<path d="M15 104C15.3715 104 15.7356 103.897 16.0516 103.701C16.3676 103.506 16.623 103.227 16.7891 102.895L22.7891 90.8945C22.7967 90.8793 22.7984 90.8624 22.8056 90.847C22.8705 90.7123 22.9198 90.5706 22.9526 90.4248L22.9573 90.4096C22.9855 90.2749 22.9998 90.1376 23 90V28C22.9989 26.9395 22.5772 25.9227 21.8273 25.1727C21.0773 24.4228 20.0605 24.0011 19 24H11C9.93946 24.0011 8.92266 24.4228 8.17274 25.1727C7.42283 25.9227 7.00106 26.9395 7 28V90C7.00014 90.1376 7.01444 90.2749 7.04266 90.4096L7.04736 90.4248C7.08018 90.5707 7.1295 90.7123 7.19436 90.847C7.20156 90.8624 7.20327 90.8793 7.2109 90.8945L13.2109 102.895C13.377 103.227 13.6324 103.506 13.9484 103.701C14.2644 103.897 14.6285 104 15 104ZM11 28H19V34H11V28ZM11 38H19V88H11V38ZM17.7637 92L15 97.5283L12.2363 92H17.7637Z" fill="black"/>
<path d="M91 122C91.0061 122.524 90.8043 123.028 90.4389 123.403C90.0735 123.778 89.5743 123.993 89.0508 124H18.9492C18.4258 123.993 17.9266 123.778 17.5612 123.403C17.1957 123.028 16.994 122.524 17 122V107.647C15.7083 108.118 14.2917 108.118 13 107.647V122C12.9951 123.584 13.6187 125.105 14.734 126.23C15.8493 127.355 17.3652 127.991 18.9492 128H89.0508C90.6348 127.991 92.1507 127.355 93.2661 126.23C94.3814 125.105 95.005 123.584 95 122V120H91V122Z" fill="black"/>
<path d="M17 6C16.994 5.47649 17.1957 4.97195 17.5612 4.59702C17.9266 4.22209 18.4258 4.00739 18.9492 4H75V14.2353C75.0017 15.7637 75.6096 17.229 76.6903 18.3097C77.7711 19.3904 79.2363 19.9983 80.7647 20H91V56H95V18.1787L94.9899 18.1685C95.015 17.8787 94.9764 17.5869 94.877 17.3135C94.7775 17.0402 94.6195 16.7919 94.4141 16.5859L78.4141 0.58594C78.0547 0.234215 77.575 0.0324837 77.0722 0.02173L77.0508 0H18.9492C17.3652 0.0085434 15.8493 0.645045 14.734 1.76987C13.6187 2.89469 12.9951 4.41598 13 6V20H17V6ZM79 6.82813L88.1719 16H80.7647C80.2969 15.9993 79.8484 15.8132 79.5176 15.4824C79.1868 15.1516 79.0007 14.7032 79 14.2353V6.82813Z" fill="black"/>
</svg>
